<svg version="1.1" xmlns="http://www.w3.org/2000/svg" viewBox="0 0 2468.013514927455 1528.3381928813963" width="2468.013514927455" height="1528.3381928813963">
  <!-- svg-source:excalidraw -->
  
  <defs>
    <style class="style-fonts">
      @font-face {
        font-family: "Virgil";
        src: url("https://excalidraw.com/Virgil.woff2");
      }
      @font-face {
        font-family: "Cascadia";
        src: url("https://excalidraw.com/Cascadia.woff2");
      }
    </style>
  </defs>
  <rect x="0" y="0" width="2468.013514927455" height="1528.3381928813963" fill="#ffffff"></rect><g stroke-linecap="round" transform="translate(320.86672731429826 125.33488956027571) rotate(0 457.5 278)"><path d="M32 0 M32 0 C203.5 -3.24, 375.75 -2.47, 883 0 M32 0 C340.62 1.35, 649.24 1.84, 883 0 M883 0 C903.9 -1.61, 914.88 10.4, 915 32 M883 0 C906.28 -1.66, 917.24 9.74, 915 32 M915 32 C913.95 139.08, 914.99 245.93, 915 524 M915 32 C916.48 146.72, 916.81 261.61, 915 524 M915 524 C914.87 547.26, 903.63 556.22, 883 556 M915 524 C915.17 546.46, 904.29 553.83, 883 556 M883 556 C681.6 556.61, 481.44 556.18, 32 556 M883 556 C672.51 554.92, 463.08 554.92, 32 556 M32 556 C9.12 557.79, 0.4 546.09, 0 524 M32 556 C8.63 556.06, 1.5 545.19, 0 524 M0 524 C1.22 396.04, 2.03 269.07, 0 32 M0 524 C1.02 331.26, 0.36 138.77, 0 32 M0 32 C-0.18 12.34, 8.87 -0.32, 32 0 M0 32 C1.38 11.78, 12.08 0.9, 32 0" stroke="#343a40" stroke-width="1" fill="none"></path></g><g transform="translate(327.266812763517 40.53487887912337) rotate(0 125.560546875 28.5777823554145)"><text x="0" y="0" font-family="Cascadia, Segoe UI Emoji" font-size="47.629637259024165px" fill="#343a40" text-anchor="start" style="white-space: pre;" direction="ltr" dominant-baseline="text-before-edge">TcpServer</text></g><g stroke-linecap="round" transform="translate(372.267056904142 410.13496890597884) rotate(0 179.5 96)"><path d="M32 0 M32 0 C109.55 -3.07, 185.07 -1.38, 327 0 M32 0 C101.72 1.58, 172.52 1.08, 327 0 M327 0 C347.51 -0.69, 358.17 9.18, 359 32 M327 0 C346.73 0.34, 358.59 8.56, 359 32 M359 32 C358.73 59.42, 355.76 86.95, 359 160 M359 32 C360.19 76.38, 359.87 118.68, 359 160 M359 160 C358.3 180.94, 349 193.68, 327 192 M359 160 C358.41 180.62, 348.6 189.73, 327 192 M327 192 C251.03 192.1, 176.74 193.87, 32 192 M327 192 C250.23 191.96, 174.67 192.01, 32 192 M32 192 C11.89 191.6, -1.6 181.96, 0 160 M32 192 C11.58 191.93, -1.75 180.64, 0 160 M0 160 C0.4 129.48, -1.62 97.1, 0 32 M0 160 C-1.07 111.1, 0.27 61.52, 0 32 M0 32 C1.45 10.79, 9.79 -0.94, 32 0 M0 32 C-0.79 11.57, 11.71 0.55, 32 0" stroke="#343a40" stroke-width="1" fill="none"></path></g><g transform="translate(395.907681904142 489.3349689059788) rotate(0 155.859375 16.799999999999997)"><text x="155.859375" y="0" font-family="Cascadia, Segoe UI Emoji" font-size="28px" fill="#343a40" text-anchor="middle" style="white-space: pre;" direction="ltr" dominant-baseline="text-before-edge">EventLoopThreadPool</text></g><g stroke-linecap="round" transform="translate(362.46670290023576 199.7348834567601) rotate(0 181.5 73.5)"><path d="M32 0 M32 0 C111.31 0.79, 189.21 -0.3, 331 0 M32 0 C99.54 -0.99, 166.54 -1.03, 331 0 M331 0 C350.74 -0.33, 362.03 8.84, 363 32 M331 0 C353.27 -2.02, 361.07 8.77, 363 32 M363 32 C363.44 54.79, 363.95 78.08, 363 115 M363 32 C362.31 54.16, 361.73 75.38, 363 115 M363 115 C361.37 137.39, 353.81 147.72, 331 147 M363 115 C361.71 135.17, 351.43 145.17, 331 147 M331 147 C268.82 146.4, 209.08 146.76, 32 147 M331 147 C249.91 145.77, 167.21 145.65, 32 147 M32 147 C10.01 147.22, 0.07 135.13, 0 115 M32 147 C9.8 148.59, -1.32 135.54, 0 115 M0 115 C0.98 85.64, -0.62 52.17, 0 32 M0 115 C-0.71 93.26, 0.65 71.92, 0 32 M0 32 C-1.6 10.21, 10.56 -0.09, 32 0 M0 32 C-1.4 8.69, 12.51 -0.51, 32 0" stroke="#343a40" stroke-width="1" fill="none"></path></g><g transform="translate(449.04482790023576 251.6348834567601) rotate(0 94.921875 21.599999999999998)"><text x="94.921875" y="0" font-family="Cascadia, Segoe UI Emoji" font-size="36px" fill="#343a40" text-anchor="middle" style="white-space: pre;" direction="ltr" dominant-baseline="text-before-edge">Accecptor</text></g><g stroke-linecap="round" transform="translate(1614.5849086216517 105.77762453593908) rotate(0 421.7143031529017 284.57142421177457)"><path d="M32 0 M32 0 C317.23 -0.88, 604.52 -0.64, 811.43 0 M32 0 C227.18 -2.81, 422.24 -3.12, 811.43 0 M811.43 0 C832.68 -2, 843.93 9.05, 843.43 32 M811.43 0 C833.57 -1.84, 845.06 12.33, 843.43 32 M843.43 32 C841.72 139.49, 841.3 247.35, 843.43 537.14 M843.43 32 C843.03 232.87, 843.58 434.49, 843.43 537.14 M843.43 537.14 C845.24 557.24, 832.23 567.37, 811.43 569.14 M843.43 537.14 C845.71 556.18, 833.72 570.35, 811.43 569.14 M811.43 569.14 C579.76 570.88, 347.45 570.43, 32 569.14 M811.43 569.14 C505.44 570.71, 200.19 570.71, 32 569.14 M32 569.14 C12.39 569.27, 0.29 559.45, 0 537.14 M32 569.14 C12.39 571.06, -1.58 560.18, 0 537.14 M0 537.14 C-0.2 405.8, -0.16 275.08, 0 32 M0 537.14 C-1.08 371.01, -1.08 205.21, 0 32 M0 32 C-1.03 10.68, 9.47 1.15, 32 0 M0 32 C-0.78 11.57, 9.37 -0.89, 32 0" stroke="#343a40" stroke-width="1" fill="none"></path></g><g transform="translate(1616.0847489961557 10) rotate(0 125.560546875 28.577782355414485)"><text x="0" y="0" font-family="Cascadia, Segoe UI Emoji" font-size="47.629637259024165px" fill="#343a40" text-anchor="start" style="white-space: pre;" direction="ltr" dominant-baseline="text-before-edge">TcpClient</text></g><g stroke-linecap="round" transform="translate(2032.2852085658478 194.7350307161846) rotate(0 193.5 82.5)"><path d="M32 0 M32 0 C152.6 -2.3, 269.49 -2.09, 355 0 M32 0 C159.79 0, 286.87 -0.99, 355 0 M355 0 C377.12 0.85, 387.91 12.42, 387 32 M355 0 C374.13 0.46, 387.42 9.38, 387 32 M387 32 C384.82 60.07, 387.79 82.83, 387 133 M387 32 C386.05 56.69, 386.15 81, 387 133 M387 133 C386.37 154.67, 376.22 164.3, 355 165 M387 133 C386.27 155.45, 374.77 163.31, 355 165 M355 165 C255.21 164.69, 153.37 162.88, 32 165 M355 165 C290.2 166.13, 224.84 166.08, 32 165 M32 165 C12.62 165.49, -0.76 156.25, 0 133 M32 165 C12.95 166.22, 0.68 155.98, 0 133 M0 133 C0.49 94.53, 0.82 58.89, 0 32 M0 133 C-0.16 98.29, -0.23 62.6, 0 32 M0 32 C1.45 12.14, 10.42 -1.2, 32 0 M0 32 C-1.31 9.08, 10.07 -2.28, 32 0" stroke="#343a40" stroke-width="1" fill="none"></path></g><g transform="translate(2130.863333565848 255.63503071618462) rotate(0 94.921875 21.599999999999998)"><text x="94.921875" y="0" font-family="Cascadia, Segoe UI Emoji" font-size="36px" fill="#343a40" text-anchor="middle" style="white-space: pre;" direction="ltr" dominant-baseline="text-before-edge">Connector</text></g><g mask="url(#mask-aTB5xLN0yZBmHzQM2IlBQ)" stroke-linecap="round"><g transform="translate(2010.8784638785755 290.5792481129843) rotate(0 -640.2584219752498 -5.910822485456972)"><path d="M-0.47 -0.89 C-214.25 -3.18, -1068.71 -11.19, -1282 -13.08 M1.48 1.26 C-212 -0.89, -1066.22 -9.01, -1279.9 -11.59" stroke="#343a40" stroke-width="1" fill="none"></path></g><g transform="translate(2010.8784638785755 290.5792481129843) rotate(0 -640.2584219752498 -5.910822485456972)"><path d="M-1253.08 -23.51 C-1261.69 -17.1, -1270.33 -14.72, -1279.01 -11.83 M-1250.65 -20.55 C-1262.3 -17.4, -1273.37 -13.06, -1280.8 -10.96" stroke="#343a40" stroke-width="1" fill="none"></path></g><g transform="translate(2010.8784638785755 290.5792481129843) rotate(0 -640.2584219752498 -5.910822485456972)"><path d="M-1253.3 -2.99 C-1261.95 -3.84, -1270.51 -8.72, -1279.01 -11.83 M-1250.86 -0.03 C-1262.48 -5.04, -1273.46 -8.86, -1280.8 -10.96" stroke="#343a40" stroke-width="1" fill="none"></path></g></g><mask id="mask-aTB5xLN0yZBmHzQM2IlBQ"><rect x="0" y="0" fill="#fff" width="3391.6996741707276" height="403.58857098441933"></rect><rect x="1206.4053587324997" y="267.27458667726677" fill="#000" width="328.125" height="33.6" opacity="1"></rect></mask><g transform="translate(1206.4053587324995 267.27458667726677) rotate(0 164.21468317082622 17.393838950260548)"><text x="164.0625" y="0" font-family="Cascadia, Segoe UI Emoji" font-size="28px" fill="#343a40" text-anchor="middle" style="white-space: pre;" direction="ltr" dominant-baseline="text-before-edge">request a connection</text></g><g stroke-linecap="round" transform="translate(1189.2567661830356 897.9488194299117) rotate(0 319.0999755859374 167.14288330078125)"><path d="M32 0 M32 0 C254.3 1.2, 475.83 0.51, 606.2 0 M32 0 C232.86 1.81, 433.96 1.34, 606.2 0 M606.2 0 C625.77 -0.01, 637.34 10.5, 638.2 32 M606.2 0 C629.07 0.31, 639.16 11.99, 638.2 32 M638.2 32 C635.82 133.14, 636.46 235.76, 638.2 302.29 M638.2 32 C637.33 96.78, 635.92 159.95, 638.2 302.29 M638.2 302.29 C638.24 322.55, 628.94 333.08, 606.2 334.29 M638.2 302.29 C639.67 323.79, 629.81 334.78, 606.2 334.29 M606.2 334.29 C433.87 335.65, 260.92 335.57, 32 334.29 M606.2 334.29 C404.89 335.12, 203.36 334.58, 32 334.29 M32 334.29 C11.63 334.7, -1.74 324.98, 0 302.29 M32 334.29 C11.12 332.24, 0.85 325.07, 0 302.29 M0 302.29 C0.22 206.1, 1.38 110.68, 0 32 M0 302.29 C1.63 235.24, 1.51 166.22, 0 32 M0 32 C-0.36 10.83, 12.38 -1.24, 32 0 M0 32 C0.35 11.79, 11.35 1.31, 32 0" stroke="#343a40" stroke-width="1" fill="none"></path></g><g transform="translate(1197.798930078745 786.285657610212) rotate(0 320.876953125 28.577782355414513)"><text x="0" y="0" font-family="Cascadia, Segoe UI Emoji" font-size="47.629637259024165px" fill="#343a40" text-anchor="start" style="white-space: pre;" direction="ltr" dominant-baseline="text-before-edge">TcpConnection(abstract)</text></g><g stroke-linecap="round" transform="translate(1252.68505859375 961.2635864500016) rotate(0 253 94)"><path d="M32 0 M32 0 C164 -0.39, 293.88 -1.37, 474 0 M32 0 C176.96 -0.28, 322.84 -0.87, 474 0 M474 0 C494.08 -0.44, 505.79 12.16, 506 32 M474 0 C497.52 -0.24, 504.19 9.65, 506 32 M506 32 C503.43 72.76, 503.75 110.3, 506 156 M506 32 C504.74 62.96, 505.32 94.23, 506 156 M506 156 C507.64 177.56, 493.5 187.18, 474 188 M506 156 C505.72 177.33, 496.83 189.92, 474 188 M474 188 C305.19 186.94, 137.47 185.88, 32 188 M474 188 C320.58 189.18, 167.68 189.35, 32 188 M32 188 C12.37 187.24, -1.56 177.47, 0 156 M32 188 C11.92 185.9, -1.31 179.55, 0 156 M0 156 C0.48 124.15, -2.41 91.25, 0 32 M0 156 C-0.57 127.93, -1.86 99.02, 0 32 M0 32 C1.63 11.27, 12.6 -1.37, 32 0 M0 32 C-2.18 9.07, 8.83 2.2, 32 0" stroke="#343a40" stroke-width="1" fill="none"></path></g><g transform="translate(1410.76318359375 1033.6635864500015) rotate(0 94.921875 21.600000000000023)"><text x="94.921875" y="0" font-family="Cascadia, Segoe UI Emoji" font-size="36px" fill="#343a40" text-anchor="middle" style="white-space: pre;" direction="ltr" dominant-baseline="text-before-edge">EventLoop</text></g><g mask="url(#mask-vKbMeC2flQMRb8UwrzgEs)" stroke-linecap="round"><g transform="translate(743.444004605673 316.580392541882) rotate(0 218.1103986202362 347.1275374635758)"><path d="M-0.11 -0.14 C72.48 115.72, 363.02 578.4, 435.76 694.11 M-1.63 -1.25 C71.29 114.87, 365.04 579.41, 437.85 695.51" stroke="#343a40" stroke-width="1" fill="none"></path></g><g transform="translate(743.444004605673 316.580392541882) rotate(0 218.1103986202362 347.1275374635758)"><path d="M413.91 675.15 C421.11 681.98, 428.74 688.92, 436.64 696.81 M413.19 677.1 C420.16 682.18, 427.63 687, 437.07 695.18" stroke="#343a40" stroke-width="1" fill="none"></path></g><g transform="translate(743.444004605673 316.580392541882) rotate(0 218.1103986202362 347.1275374635758)"><path d="M431.27 664.21 C432.82 674.53, 434.89 684.97, 436.64 696.81 M430.55 666.16 C432.47 674.33, 434.95 682.3, 437.07 695.18" stroke="#343a40" stroke-width="1" fill="none"></path></g></g><mask id="mask-vKbMeC2flQMRb8UwrzgEs"><rect x="0" y="0" fill="#fff" width="1280.3905720788787" height="1110.970371740044"></rect><rect x="912.6985383422757" y="646.9753821409629" fill="#000" width="98.4375" height="33.6" opacity="1"></rect></mask><g transform="translate(912.6985383422757 646.9753821409629) rotate(0 48.855864883633444 16.732547864494904)"><text x="49.21875" y="0" font-family="Cascadia, Segoe UI Emoji" font-size="28px" fill="#343a40" text-anchor="middle" style="white-space: pre;" direction="ltr" dominant-baseline="text-before-edge">accept</text></g><g stroke-linecap="round" transform="translate(2056.785278320312 408.46335451640783) rotate(0 177 83.5)"><path d="M32 0 M32 0 C93.48 -1.79, 154.98 -1.42, 322 0 M32 0 C128.14 -0.44, 223.51 -0.75, 322 0 M322 0 C342.55 -0.67, 353.18 12.09, 354 32 M322 0 C342.45 -0.85, 356.09 11.03, 354 32 M354 32 C355.89 55.28, 354.44 81.09, 354 135 M354 32 C353.26 64.02, 353.63 96.65, 354 135 M354 135 C355.52 155.81, 341.44 167.8, 322 167 M354 135 C354.23 156.61, 342.26 165.38, 322 167 M322 167 C219.31 168.99, 113.22 167.12, 32 167 M322 167 C214.48 168.08, 106.1 168.52, 32 167 M32 167 C12.61 166.86, 0.71 157.95, 0 135 M32 167 C10.3 169.27, -2.06 156.07, 0 135 M0 135 C1.3 99.45, 0.41 65.62, 0 32 M0 135 C-0.52 96.22, -1.15 57.36, 0 32 M0 32 C0.02 11.71, 9.96 0.79, 32 0 M0 32 C-1.71 12.94, 11.02 -2.02, 32 0" stroke="#343a40" stroke-width="1" fill="none"></path></g><g transform="translate(2138.863403320312 470.36335451640787) rotate(0 94.921875 21.599999999999994)"><text x="94.921875" y="0" font-family="Cascadia, Segoe UI Emoji" font-size="36px" fill="#343a40" text-anchor="middle" style="white-space: pre;" direction="ltr" dominant-baseline="text-before-edge">EventLoop</text></g><g stroke-linecap="round"><g transform="translate(728.9849853515625 517.2634643796891) rotate(0 66.61430597579579 -3.6738822130579507)"><path d="M-0.67 -0.67 C21.24 -1.83, 109.37 -6.04, 131.74 -7.22 M1.18 1.59 C23.43 0.11, 111.89 -7.62, 133.9 -8.94" stroke="#343a40" stroke-width="1" fill="none"></path></g></g><mask></mask><g transform="translate(745.3851318359375 464.86374514140783) rotate(0 111.328125 12)"><text x="0" y="0" font-family="Cascadia, Segoe UI Emoji" font-size="20px" fill="#343a40" text-anchor="start" style="white-space: pre;" direction="ltr" dominant-baseline="text-before-edge">Assign an EventLoop</text></g><g mask="url(#mask-AXFGajWriN4BLfOJdDkca)" stroke-linecap="round"><g transform="translate(2026.7565917968745 314.32187899654076) rotate(0 -95.86565427659161 340.872380603215)"><path d="M-0.02 1.03 C-31.79 114.3, -159.14 566.62, -190.99 679.63 M-1.48 0.52 C-33.35 114.01, -160 567.95, -191.71 681.23" stroke="#343a40" stroke-width="1" fill="none"></path></g><g transform="translate(2026.7565917968745 314.32187899654076) rotate(0 -95.86565427659161 340.872380603215)"><path d="M-192.3 652.02 C-193.2 659.86, -193.52 665.55, -190.6 682.79 M-194.08 651.2 C-192.95 661.9, -192.48 673.79, -192.42 681.81" stroke="#343a40" stroke-width="1" fill="none"></path></g><g transform="translate(2026.7565917968745 314.32187899654076) rotate(0 -95.86565427659161 340.872380603215)"><path d="M-172.54 657.54 C-178.77 663.89, -184.43 668.09, -190.6 682.79 M-174.32 656.73 C-180.32 665.32, -186.94 675.22, -192.42 681.81" stroke="#343a40" stroke-width="1" fill="none"></path></g></g><mask id="mask-AXFGajWriN4BLfOJdDkca"><rect x="0" y="0" fill="#fff" width="2318.170915876116" height="1093.8308924039356"></rect><rect x="1873.6275547572536" y="637.2763857002382" fill="#000" width="114.84375" height="33.6" opacity="1"></rect></mask><g transform="translate(1873.627554757254 637.276385700238) rotate(0 57.26338276302886 17.917873899517588)"><text x="57.421875" y="0" font-family="Cascadia, Segoe UI Emoji" font-size="28px" fill="#343a40" text-anchor="middle" style="white-space: pre;" direction="ltr" dominant-baseline="text-before-edge">connect</text></g><g stroke-linecap="round"><g transform="translate(2058.585083007812 504.46359865703283) rotate(0 -42.865327160595825 8.599644532976683)"><path d="M0.85 0.5 C-13.56 3.2, -70.96 13.78, -85.35 16.51 M-0.16 -0.28 C-14.88 2.5, -72.18 14.45, -86.58 17.48" stroke="#343a40" stroke-width="1" fill="none"></path></g></g><mask></mask><g transform="translate(1829.384643554688 465.2635864500016) rotate(0 105.46875 12)"><text x="0" y="0" font-family="Cascadia, Segoe UI Emoji" font-size="20px" fill="#343a40" text-anchor="start" style="white-space: pre;" direction="ltr" dominant-baseline="text-before-edge">Share an EventLoop</text></g><g transform="translate(1238.98486328125 1432.0629028562516) rotate(0 400.1845703125 43.13764501257231)"><text x="0" y="0" font-family="Cascadia, Segoe UI Emoji" font-size="71.89607502095396px" fill="#e67700" text-anchor="start" style="white-space: pre;" direction="ltr" dominant-baseline="text-before-edge">NETPOLL_TCP_MESSAGE</text></g><g transform="translate(10 1417.2638305906264) rotate(0 472.634765625 44)"><text x="0" y="0" font-family="Cascadia, Segoe UI Emoji" font-size="73.33333333333339px" fill="#e67700" text-anchor="start" style="white-space: pre;" direction="ltr" dominant-baseline="text-before-edge">NETPOLL_TCP_CONNECTION</text></g><g mask="url(#mask-IQRY4WSslF4XHLQXY0upx)" stroke-linecap="round"><g transform="translate(1178.5850830078125 960.3628369241437) rotate(0 -275.6184134143907 224.4849754343607)"><path d="M-0.37 -0.95 C-92.47 73.83, -460.79 373.58, -552.87 448.7 M1.64 1.17 C-90.06 76.09, -458.56 375.5, -550.56 449.92" stroke="#e67700" stroke-width="1" fill="none"></path></g><g transform="translate(1178.5850830078125 960.3628369241437) rotate(0 -275.6184134143907 224.4849754343607)"><path d="M-536.71 422.92 C-540.43 430.07, -542.96 438.53, -551.67 451.26 M-536.04 424.62 C-539.09 429.7, -542.12 434.28, -549.78 449.78" stroke="#e67700" stroke-width="1" fill="none"></path></g><g transform="translate(1178.5850830078125 960.3628369241437) rotate(0 -275.6184134143907 224.4849754343607)"><path d="M-523.79 438.86 C-531.11 441.53, -537.24 445.54, -551.67 451.26 M-523.11 440.56 C-528.65 442.51, -534.3 443.86, -549.78 449.78" stroke="#e67700" stroke-width="1" fill="none"></path></g></g><mask id="mask-IQRY4WSslF4XHLQXY0upx"><rect x="0" y="0" fill="#fff" width="1830.6942316199447" height="1509.6634887937512"></rect><rect x="722.0617587017464" y="1168.2131628589475" fill="#000" width="360.9375" height="33.6" opacity="1"></rect></mask><g transform="translate(722.0617587017464 1168.2131628589475) rotate(0 180.9049108916754 16.63464949955693)"><text x="180.46875" y="0" font-family="Cascadia, Segoe UI Emoji" font-size="28px" fill="#e67700" text-anchor="middle" style="white-space: pre;" direction="ltr" dominant-baseline="text-before-edge">accept call successful</text></g><g mask="url(#mask-LTAw5uNCpFIScus5fgSOu)" stroke-linecap="round"><g transform="translate(1847.3851318359375 972.0635132078141) rotate(0 -504.07717765235816 219.90246720152902)"><path d="M0.65 -0.49 C-167.16 72.76, -839.79 367.03, -1007.9 440.59 M-0.47 -1.79 C-168.33 72.09, -840.75 367.67, -1008.8 441.6" stroke="#e67700" stroke-width="1" fill="none"></path></g><g transform="translate(1847.3851318359375 972.0635132078141) rotate(0 -504.07717765235816 219.90246720152902)"><path d="M-987.94 421.02 C-993.19 425.32, -997.31 429.97, -1009.54 442.73 M-987.45 421.45 C-994.71 427.63, -1000.54 434.5, -1009.2 440.62" stroke="#e67700" stroke-width="1" fill="none"></path></g><g transform="translate(1847.3851318359375 972.0635132078141) rotate(0 -504.07717765235816 219.90246720152902)"><path d="M-979.68 439.8 C-986.85 440.19, -992.71 440.87, -1009.54 442.73 M-979.19 440.23 C-989.14 440.38, -997.62 441.24, -1009.2 440.62" stroke="#e67700" stroke-width="1" fill="none"></path></g></g><mask id="mask-LTAw5uNCpFIScus5fgSOu"><rect x="0" y="0" fill="#fff" width="2955.38525390625" height="1513.6634887937516"></rect><rect x="1154.7131958007812" y="1176.063501000783" fill="#000" width="377.34375" height="33.6" opacity="1"></rect></mask><g transform="translate(1154.7131958007812 1176.063501000783) rotate(0 188.5947583827981 15.902479408560225)"><text x="188.671875" y="0" font-family="Cascadia, Segoe UI Emoji" font-size="28px" fill="#e67700" text-anchor="middle" style="white-space: pre;" direction="ltr" dominant-baseline="text-before-edge">connect call successful</text></g><g mask="url(#mask-HfgBStGAW9lxjPzNdqKW0)" stroke-linecap="round"><g transform="translate(1589.3497483578076 1239.2634643796891) rotate(0 -8.177228700585601 95.14779104338498)"><path d="M0.9 0.34 C-1.87 32.09, -13.75 159.08, -16.65 190.82 M-0.08 -0.53 C-2.96 30.84, -14.47 157.49, -17.26 189.03" stroke="#e67700" stroke-width="1" fill="none"></path></g><g transform="translate(1589.3497483578076 1239.2634643796891) rotate(0 -8.177228700585601 95.14779104338498)"><path d="M-24.39 161.12 C-21.52 170.06, -19.29 178.58, -15.85 189.77 M-25.37 159.73 C-22.06 169.73, -20.36 179.12, -16.85 188.84" stroke="#e67700" stroke-width="1" fill="none"></path></g><g transform="translate(1589.3497483578076 1239.2634643796891) rotate(0 -8.177228700585601 95.14779104338498)"><path d="M-3.95 162.96 C-7.23 171.5, -11.16 179.47, -15.85 189.77 M-4.94 161.57 C-8.19 170.95, -13.07 179.75, -16.85 188.84" stroke="#e67700" stroke-width="1" fill="none"></path></g></g><mask id="mask-HfgBStGAW9lxjPzNdqKW0"><rect x="0" y="0" fill="#fff" width="1706.6550600480355" height="1529.4629272703141"></rect><rect x="1490.4627175126934" y="1283.9631958250015" fill="#000" width="180.46875" height="100.80000000000001" opacity="1"></rect></mask><g transform="translate(1490.4627175126934 1283.9631958250015) rotate(0 90.70980214452834 50.44805959807246)"><text x="90.234375" y="0" font-family="Cascadia, Segoe UI Emoji" font-size="28px" fill="#e67700" text-anchor="middle" style="white-space: pre;" direction="ltr" dominant-baseline="text-before-edge">When the </text><text x="90.234375" y="33.6" font-family="Cascadia, Segoe UI Emoji" font-size="28px" fill="#e67700" text-anchor="middle" style="white-space: pre;" direction="ltr" dominant-baseline="text-before-edge">message is </text><text x="90.234375" y="67.2" font-family="Cascadia, Segoe UI Emoji" font-size="28px" fill="#e67700" text-anchor="middle" style="white-space: pre;" direction="ltr" dominant-baseline="text-before-edge">received</text></g></svg>